Coordinates
version=1
nRows=19
nColumns=24
inDegrees=yes

Units are S.I. units (second, meters, Newtons, ...)
Angles are in degrees.

endheader
time	pelvis_tilt	pelvis_list	pelvis_rotation	pelvis_tx	pelvis_ty	pelvis_tz	hip_flexion_r	hip_adduction_r	hip_rotation_r	knee_angle_r	ankle_angle_r	subtalar_angle_r	mtp_angle_r	hip_flexion_l	hip_adduction_l	hip_rotation_l	knee_angle_l	ankle_angle_l	subtalar_angle_l	mtp_angle_l	lumbar_extension	lumbar_bending	lumbar_rotation
      0.52900000	      0.50401575	      1.79593929	      3.79185053	     -0.82897510	      0.98398740	      0.32213537	     23.47921750	      0.15452090	     -4.46646549	     -2.39497783	      5.42775094	    -12.02383199	     -0.06908159	    -15.95800243	      4.91160102	      6.00190469	    -10.25587600	     10.00654291	     -5.13150004	      0.80769422	     -1.12852061	      0.70546853	     -1.40619898
      0.53316667	      0.43228706	      1.78158299	      3.80820786	     -0.82295568	      0.98349746	      0.32246476	     23.56709140	      0.23834006	     -4.50457917	     -2.69488354	      5.37319314	    -12.08153410	     -0.08100165	    -15.94241999	      4.84200956	      5.80096309	    -10.81189540	      9.88412141	     -4.73903953	      1.03419026	     -0.98622463	      0.70894174	     -1.48002867
      0.53733333	      0.39159152	      1.75146146	      3.80152991	     -0.81689908	      0.98307301	      0.32282996	     23.61485684	      0.35022600	     -4.47323849	     -3.03416372	      5.27613493	    -12.17638422	     -0.06809909	    -15.95557827	      4.75957831	      5.58020423	    -11.37383503	      9.75368185	     -4.39431335	      1.33015188	     -0.88408820	      0.73221330	     -1.53362196
      0.54150000	      0.35000575	      1.71272241	      3.78913163	     -0.81077127	      0.98267876	      0.32320090	     23.65313934	      0.47437378	     -4.40448686	     -3.40737032	      5.12563846	    -12.32723444	     -0.02525181	    -15.96306763	      4.66979319	      5.35905686	    -11.94690778	      9.57959629	     -4.07824559	      1.69906343	     -0.76933816	      0.76992382	     -1.58522920
      0.54566667	      0.37842391	      1.63337209	      3.78018182	     -0.80458569	      0.98242045	      0.32359569	     23.58689514	      0.65152883	     -4.27595364	     -3.77671799	      4.96210140	    -12.77082713	      0.22929286	    -16.03743080	      4.52345515	      5.11019524	    -12.52368150	      9.35872439	     -3.70382286	      3.14036241	     -0.73755318	      0.86561909	     -1.60782503
      0.54983333	      0.28577206	      1.61048388	      3.72850715	     -0.79836786	      0.98201961	      0.32398957	     23.69532405	      0.76450359	     -4.15753268	     -4.25764515	      4.65834964	    -12.78002718	      0.26001377	    -16.00127299	      4.47836249	      4.96884507	    -13.06992559	      9.01470622	     -3.63538996	      3.27621538	     -0.55326326	      0.88275015	     -1.64909134
      0.55400000	      0.20132613	      1.55539786	      3.71287604	     -0.79213842	      0.98165685	      0.32438731	     23.76638715	      0.90617493	     -4.01410796	     -4.72414506	      4.39147219	    -13.03550484	      0.34635004	    -15.88852389	      4.36926160	      4.68051427	    -13.77782668	      8.77278656	     -3.28084479	      3.59959124	     -0.36880535	      0.92901396	     -1.69731565
      0.55816667	      0.16543168	      1.48540892	      3.65691219	     -0.78583459	      0.98140198	      0.32483954	     23.76398430	      1.08941564	     -3.75570107	     -5.18126575	      4.04191787	    -13.62731682	      1.57788192	    -15.87179662	      4.25728606	      4.45363614	    -14.38000186	      8.30271511	     -3.19760564	      7.85582755	     -0.24072540	      1.00250021	     -1.69920724
      0.56233333	      0.13570490	      1.39056325	      3.62510439	     -0.77947565	      0.98117346	      0.32525842	     23.75227115	      1.27729384	     -3.62321335	     -5.64930324	      3.63899699	    -13.76628496	      1.61893762	    -15.80659353	      4.09763397	      4.12705910	    -15.10133254	      7.97238516	     -2.78218051	      7.94260727	     -0.11500433	      1.11629949	     -1.74387695
      0.56650000	      0.07430536	      1.29819300	      3.58017506	     -0.77309977	      0.98094648	      0.32571276	     23.76144867	      1.47369653	     -3.39652361	     -6.11739420	      3.22379399	    -14.15593537	      1.68033957	    -15.68877970	      3.94569830	      3.81057158	    -15.84306655	      7.55205402	     -2.44728177	      8.11229583	      0.05812203	      1.21782937	     -1.76351022
      0.57066667	      0.04246677	      1.17087571	      3.52804238	     -0.76667378	      0.98080265	      0.32620298	     23.71475935	      1.72017047	     -3.10033844	     -6.56250382	      2.81450901	    -14.85169943	      1.82682706	    -15.58844515	      3.74707089	      3.46015336	    -16.60064793	      7.08856239	     -2.07288524	      8.58517900	      0.19590806	      1.36973184	     -1.77383492
      0.57483333	     -0.03189686	      1.07992148	      3.47768715	     -0.76025224	      0.98062461	      0.32664915	     23.72797558	      1.90696150	     -2.90177195	     -7.03139037	      2.28210764	    -15.09783267	      1.89592757	    -15.42088409	      3.59691631	      3.16179769	    -17.39866556	      6.55683493	     -1.82437431	      8.85058430	      0.39028944	      1.46783426	     -1.78167915
      0.57900000	     -0.10368738	      0.96734707	      3.41139333	     -0.75381565	      0.98050291	      0.32715433	     23.72457164	      2.13682123	     -2.57912460	     -7.50091570	      1.81713651	    -15.85503921	      2.95312956	    -15.24382050	      3.41848170	      2.85067307	    -18.18701113	      5.87455317	     -1.64019730	     13.25203127	      0.57906914	      1.59264381	     -1.76216890
      0.58316667	     -0.12386690	      0.81580523	      3.36223672	     -0.74733772	      0.98046321	      0.32763061	     23.67246887	      2.38291823	     -2.45513219	     -7.98221573	      1.32798398	    -16.12565052	      2.98169296	    -15.05919665	      3.16961740	      2.43741616	    -19.10012639	      5.31397930	     -1.16465251	     13.37430007	      0.70655520	      1.78026191	     -1.79767992
      0.58733333	     -0.21117615	      0.69667935	      3.32085482	     -0.74088211	      0.98040604	      0.32810234	     23.66792408	      2.59245207	     -2.24499317	     -8.42502372	      0.83226743	    -16.48204059	      3.00484516	    -14.77787040	      2.96098328	      2.10790677	    -20.03647262	      4.59474228	     -0.82524178	     13.54253061	      0.92532380	      1.90911067	     -1.79838749
      0.59150000	     -0.21052597	      0.52834247	      3.24786452	     -0.73441023	      0.98049603	      0.32865740	     23.53853182	      2.88548769	     -1.90740160	     -8.81915719	      0.33781538	    -17.31789106	      3.08942925	    -14.57733937	      2.68559278	      1.71257343	    -20.98299137	      3.84670652	     -0.45178442	     14.38607079	      1.02229833	      2.11111129	     -1.80233008
      0.59566667	     -0.32187313	      0.40683122	      3.23429875	     -0.72798402	      0.98047306	      0.32907257	     23.59013978	      3.06167195	     -1.86924440	     -9.33785402	     -0.07521580	    -17.43148704	      3.10229620	    -14.18526562	      2.45601283	      1.42590932	    -22.04665793	      3.05566503	     -0.08363448	     14.61909035	      1.26834875	      2.24896452	     -1.79818380
      0.59983333	     -0.33189391	      0.22226383	      3.17224088	     -0.72155225	      0.98063604	      0.32965162	     23.45637088	      3.36485705	     -1.53897994	     -9.70977486	     -0.53923205	    -18.30493177	      3.16047557	    -13.88206987	      2.13533875	      1.01952148	    -23.11998550	      2.18690275	      0.33797547	     16.23566878	      1.37237953	      2.46375714	     -1.82669299
      0.60400000	     -0.43995441	      0.08727150	      3.17045797	     -0.71519578	      0.98065627	      0.33004753	     23.53954558	      3.53048295	     -1.63868890	    -10.30746878	     -0.83623063	    -18.29038857	      3.16171802	    -13.41012740	      1.86999593	      0.75440141	    -24.30785438	      1.34106159	      0.72963895	     16.61740880	      1.59982205	      2.61741766	     -1.81303242
